<?xml version="1.0" standalone="no"?>
<!DOCTYPE svg PUBLIC "-//W3C//DTD SVG 20010904//EN"
 "http://www.w3.org/TR/2001/REC-SVG-20010904/DTD/svg10.dtd">
<svg version="1.0" xmlns="http://www.w3.org/2000/svg"
 width="256.000000pt" height="185.000000pt" viewBox="0 0 256.000000 185.000000"
 preserveAspectRatio="xMidYMid meet">

<g transform="translate(0.000000,185.000000) scale(0.100000,-0.100000)"
fill="#f33" stroke="none">
<path d="M820 1723 c-31 -11 -60 -47 -60 -74 0 -15 -3 -29 -7 -31 -14 -6 -63
-105 -63 -127 0 -11 -4 -21 -9 -21 -5 0 -17 -24 -27 -52 -9 -29 -23 -62 -30
-73 -8 -11 -14 -33 -14 -50 0 -29 -26 -115 -54 -180 -7 -16 -19 -51 -26 -77
-7 -27 -17 -48 -21 -48 -5 0 -9 -10 -9 -23 0 -12 -6 -31 -13 -42 -8 -11 -17
-35 -20 -53 -11 -54 -23 -59 -158 -68 l-124 -9 -3 -28 c-2 -20 4 -35 20 -49
21 -18 32 -20 106 -14 45 3 82 3 82 0 0 -3 -6 -18 -14 -32 -19 -37 -42 -92
-51 -122 -11 -41 -29 -80 -37 -80 -4 0 -10 -17 -14 -37 -4 -21 -11 -43 -16
-50 -5 -7 -18 -46 -29 -88 -17 -68 -17 -80 -4 -104 25 -49 115 -50 115 -2 0 9
4 21 9 26 4 6 22 44 39 86 17 41 42 95 56 120 14 24 26 51 26 59 0 13 23 62
57 125 6 11 17 35 23 53 7 17 16 32 21 32 5 0 9 7 9 16 0 35 30 47 134 55 89
6 166 17 259 35 28 6 38 34 12 34 -8 0 -15 6 -15 14 0 7 -14 19 -31 26 -25 11
-53 11 -147 1 -64 -7 -125 -14 -135 -16 -16 -3 -18 1 -12 23 4 15 10 29 14 32
4 3 20 39 36 80 15 41 32 79 36 84 5 6 9 20 9 33 0 13 5 23 10 23 6 0 10 14
10 32 0 36 40 145 99 268 11 25 21 51 21 58 0 6 5 12 10 12 6 0 10 -8 10 -18
0 -10 15 -49 33 -87 18 -39 41 -99 51 -135 10 -36 27 -89 37 -118 10 -30 19
-64 19 -75 0 -25 50 -150 62 -155 5 -2 8 -15 8 -28 0 -13 4 -24 8 -24 4 0 16
-23 26 -50 10 -28 22 -50 27 -50 5 0 9 -8 9 -17 0 -10 9 -33 20 -51 11 -18 20
-39 20 -46 0 -7 6 -19 14 -25 8 -7 22 -27 31 -46 9 -19 20 -35 25 -35 6 0 10
-9 10 -20 0 -11 5 -20 10 -20 6 0 10 -6 10 -14 0 -8 6 -16 14 -19 8 -3 20 -22
27 -41 7 -20 17 -36 22 -36 6 0 16 -8 23 -17 19 -26 134 -25 163 1 24 22 28
68 6 86 -8 7 -29 37 -46 66 -17 30 -34 54 -39 54 -4 0 -11 12 -14 28 -10 37
-30 82 -37 82 -4 0 -12 15 -20 33 -7 17 -16 34 -19 37 -8 6 -72 142 -90 190
-8 19 -20 44 -27 55 -7 11 -13 27 -13 37 0 10 -4 18 -10 18 -5 0 -10 4 -10 9
0 5 -10 30 -22 57 -12 27 -23 51 -23 54 -4 17 -38 116 -60 175 -15 39 -29 78
-32 88 -3 9 -9 17 -14 17 -5 0 -9 9 -9 19 0 11 -4 23 -10 26 -5 3 -10 15 -10
25 0 10 -6 25 -13 32 -7 7 -23 31 -36 53 -29 53 -114 115 -155 114 -17 0 -38
-3 -46 -6z"/>
<path d="M1903 1315 l6 -145 -25 0 c-13 0 -24 -4 -24 -8 0 -9 -124 -32 -178
-32 -20 0 -68 -11 -107 -24 -61 -19 -70 -26 -73 -48 -4 -31 26 -45 57 -29 11
6 75 15 143 21 145 12 189 18 204 31 17 14 23 -9 31 -107 3 -47 10 -87 15 -90
4 -3 8 -14 8 -26 0 -32 41 -98 62 -98 10 0 21 -7 24 -15 7 -18 55 -20 72 -3
15 15 16 84 2 93 -5 3 -10 19 -10 34 0 16 -7 34 -15 41 -8 7 -15 27 -15 45 0
17 -4 45 -9 61 -5 16 -12 43 -14 59 l-6 31 77 12 c43 7 131 12 197 12 137 1
155 8 155 62 0 52 -33 63 -166 55 -58 -4 -114 -11 -124 -17 -11 -6 -46 -13
-78 -16 -56 -6 -59 -5 -65 17 -4 13 -7 43 -7 66 0 23 -4 45 -10 48 -5 3 -10
22 -10 42 0 47 -30 73 -83 73 l-40 0 6 -145z"/>
</g>
</svg>
